<svg width="580" height="400" xmlns="http://www.w3.org/2000/svg">
 <!-- Created with SVG Editor - http://github.com/mzalive/SVG Editor/ -->

 <g>
  <title>background</title>
  <rect fill="#fff" id="canvas_background" height="402" width="582" y="-1" x="-1"/>
  <g display="none" overflow="visible" y="0" x="0" height="100%" width="100%" id="canvasGrid">
   <rect fill="url(#gridpattern)" stroke-width="0" y="0" x="0" height="100%" width="100%"/>
  </g>
 </g>
 <g>
  <title>Layer 1</title>
  <g id="svg_50">
   <path id="svg_4" fill="#23A9E1" d="m373.110336,31.232727l86.462477,100.986806l87.316849,-100.986806l-173.779327,0z"/>
   <path id="svg_5" fill="#491213" d="m460.085437,31.232727l-86.975101,0l0,38.446754l86.462477,105.087793l0.512623,-0.683498l86.633352,-103.208174l0,-39.642875l-86.633352,0zm0,97.569317l-0.512623,0.683498l-80.140122,-95.177075l80.652745,0l80.652745,0l-80.652745,94.493577z"/>
   <path id="svg_6" fill="#491213" d="m459.572813,129.485542l0.512623,-0.683498l47.161351,-55.192451c-11.790338,1.53787 -20.334061,10.423342 -31.78265,8.543723c-5.809732,-1.025247 -5.980606,-4.271862 -7.689351,-7.689351c-1.196121,-2.563117 -3.246615,-2.221368 -5.980606,-3.246615c-2.392242,-1.025247 -3.930113,-2.904866 -8.885472,-1.879619c-4.271862,1.025247 -4.784485,7.689351 -10.252468,7.347602c-2.904866,-0.170874 -3.07574,-4.271862 -7.176727,-9.398095c-10.765091,-12.986459 -20.846684,-11.10684 -27.681663,0.854372l51.774962,61.343931z"/>
   <path id="svg_7" fill="white" d="m412.924086,86.254303c0.854372,1.025247 1.53787,2.221368 1.366996,3.588364c-0.170874,1.025247 -1.53787,2.563117 -0.512623,3.07574c1.196121,-1.53787 2.563117,-3.246615 3.759238,-4.784485c-1.025247,-0.341749 -9.227221,-9.910719 -9.227221,-11.10684c-1.879619,1.025247 -3.588364,2.050494 -5.467983,2.904866c0.341749,1.196121 2.221368,0 3.246615,0c1.366996,0.170874 2.392242,1.025247 3.417489,2.050494c-2.904866,2.392242 -10.081593,8.543723 -10.935965,8.714598c-0.341749,0 -1.879619,-1.025247 -1.879619,-0.170874c0,0.512623 1.53787,1.708745 1.708745,2.050494c1.196121,1.53787 2.563117,3.07574 3.759238,4.61361c1.025247,-0.512623 -0.170874,-1.196121 0.341749,-2.050494c0.512623,-0.512623 8.372849,-7.176727 10.423342,-8.885472z"/>
   <path id="svg_8" fill="white" d="m403.867739,74.463966c0.683498,-0.170874 1.025247,0.683498 1.708745,-0.170874c-1.366996,-1.708745 -2.733991,-3.246615 -4.100987,-4.955359c-0.683498,-0.683498 -1.366996,-1.53787 -1.196121,0c0.170874,1.025247 -10.423342,9.739844 -11.10684,9.910719c-0.854372,0.341749 -1.366996,-0.683498 -1.879619,0.170874c1.196121,1.53787 2.563117,2.904866 3.759238,4.442736c0.341749,0.512623 0.854372,1.025247 1.196121,1.53787c0.512623,0.512623 0.341749,-1.196121 0.341749,-1.025247c-0.170874,-0.854372 0.854372,-1.53787 1.53787,-2.050494c2.563117,-2.392242 9.056346,-7.860225 9.739844,-7.860225z"/>
   <path id="svg_9" fill="white" d="m388.830787,72.926095c-3.07574,0.854372 -6.151481,-0.341749 -7.176727,-3.417489c-0.854372,-3.07574 1.025247,-6.49323 3.588364,-8.201974c2.392242,-1.708745 6.151481,-1.708745 7.518476,1.366996c0.512623,1.366996 0.341749,2.904866 -0.170874,4.271862c-0.341749,0.854372 -1.025247,1.708745 0.170874,2.221368c1.53787,-1.879619 2.904866,-3.759238 4.442736,-5.638857c-1.879619,-1.025247 -2.563117,-2.904866 -3.930113,-4.442736c-1.53787,-1.879619 -3.588364,-3.588364 -5.980606,-3.930113c-4.955359,-0.683498 -9.56897,4.442736 -9.910719,8.885472c-0.170874,2.563117 0.683498,4.784485 2.050494,6.834978c1.366996,1.708745 3.246615,2.733991 4.100987,4.784485c0.512623,0.170874 4.61361,-1.708745 5.638857,-2.221368c-0.170874,-0.170874 -0.170874,-0.512623 -0.341749,-0.512623c-1.196121,0.341749 0,0 0,0z"/>
   <path id="svg_10" fill="white" d="m455.98445,135.124399c-2.050494,-1.366996 -6.834978,-8.0311 -7.860225,-9.056346c-0.170874,-0.170874 -0.341749,-0.512623 -0.512623,-0.683498c0,0 -0.512623,0.341749 -0.341749,0.341749c-0.341749,0.170874 0.170874,1.025247 -0.170874,1.53787c-1.366996,2.050494 -9.910719,8.543723 -10.252468,8.885472c-1.025247,0.683498 -2.050494,-0.341749 -2.563117,0.512623c1.196121,1.53787 4.784485,5.980606 5.126234,6.151481c0.854372,0.170874 0.170874,-1.366996 0.341749,-1.708745c0.170874,-0.683498 4.442736,-4.100987 5.980606,-5.467983c0.512623,-0.512623 1.196121,0.683498 1.53787,1.196121c0.512623,0.854372 0.854372,1.708745 0.512623,2.733991c-0.170874,0.683498 -1.196121,1.53787 -0.512623,2.050494c1.025247,-1.196121 4.100987,-4.784485 4.442736,-5.126234c0.512623,-0.512623 -1.025247,0 -0.854372,-0.170874c-0.683498,0.341749 -1.196121,0.341749 -1.879619,0c-0.170874,-0.170874 -1.879619,-1.879619 -1.708745,-2.050494c0.683498,-0.683498 1.708745,-1.708745 2.563117,-1.879619c1.53787,-0.341749 2.733991,2.563117 2.904866,3.588364c0.170874,1.025247 0.170874,2.050494 -0.170874,3.07574c-0.170874,0.683498 -0.854372,1.196121 0,1.53787c1.196121,-1.708745 2.392242,-3.246615 3.588364,-4.955359c0.341749,-0.341749 0,-0.512623 -0.170874,-0.512623c-0.170874,-0.170874 0.341749,0 0,0z"/>
   <path id="svg_11" fill="white" d="m438.555255,127.947672c3.759238,-3.246615 4.271862,-8.714598 1.366996,-12.473836c-3.246615,-4.271862 -9.227221,-5.297108 -13.328208,-1.879619c-3.759238,3.246615 -4.271862,8.543723 -1.366996,12.473836c3.417489,4.61361 8.885472,5.126234 13.328208,1.879619c2.050494,-1.53787 -0.170874,0.170874 0,0zm-0.854372,-8.0311c-1.025247,2.563117 -3.759238,5.297108 -6.322355,6.322355c-3.07574,1.196121 -5.297108,-1.366996 -4.100987,-4.442736c1.025247,-2.563117 3.759238,-5.297108 6.322355,-6.322355c3.246615,-1.196121 5.297108,1.53787 4.100987,4.442736c-0.512623,1.53787 0.170874,-0.341749 0,0z"/>
   <path id="svg_12" fill="white" d="m427.619289,103.000001c0.854372,0.170874 1.53787,1.025247 2.221368,0c-1.196121,-1.53787 -2.563117,-3.07574 -3.759238,-4.442736c-1.025247,0.512623 0,0.854372 -0.341749,1.708745c-0.341749,0.683498 -4.442736,1.366996 -5.467983,1.53787c0.341749,-1.025247 1.53787,-4.442736 2.050494,-4.784485c0.854372,-0.683498 1.53787,0.683498 2.221368,-0.170874c-1.53787,-1.879619 -3.07574,-3.759238 -4.61361,-5.638857c-0.512623,-0.683498 -1.025247,-1.708745 -1.708745,-1.196121c0,0 0,2.563117 -0.170874,2.904866c-0.170874,0.341749 -1.53787,6.151481 -3.246615,7.689351c-0.854372,0.683498 -3.759238,3.246615 -4.61361,3.588364c-0.854372,0.341749 -1.366996,-1.025247 -2.050494,0c1.366996,1.708745 2.904866,3.417489 4.271862,5.126234c0.170874,0.170874 1.025247,1.53787 1.366996,1.53787c0.854372,0.170874 0.170874,-1.53787 0.170874,-1.879619c0.341749,-0.683498 4.271862,-4.61361 5.980606,-4.955359c2.050494,-0.512623 5.126234,-1.366996 7.689351,-1.025247c0.512623,0.170874 -0.683498,0 0,0z"/>
   <path id="svg_13" fill="white" d="m491.355463,120.770945c0.341749,1.025247 0.512623,2.221368 0.341749,3.417489c-0.170874,1.53787 -1.708745,4.955359 -3.759238,3.930113c-2.050494,-1.025247 -3.759238,-2.904866 -5.467983,-4.442736c1.366996,-1.53787 2.563117,-2.904866 4.955359,-2.221368c0.683498,0.170874 1.196121,0 0.512623,-0.512623c-0.683498,-0.341749 -5.297108,-3.417489 -5.638857,-3.07574c-0.512623,0.512623 0.854372,1.53787 0.341749,2.563117c-0.341749,0.683498 -1.025247,1.366996 -1.53787,2.050494c-1.196121,-1.025247 -3.246615,-2.221368 -1.879619,-3.930113c0.854372,-1.196121 2.221368,-2.050494 3.588364,-2.221368c1.025247,-0.170874 3.07574,0.683498 3.417489,-0.341749c-1.879619,-0.854372 -3.759238,-1.708745 -5.638857,-2.733991c0.341749,1.366996 -5.638857,7.689351 -7.005853,9.398095c-0.170874,0.170874 -1.196121,1.025247 -1.196121,1.366996c0,0.683498 1.025247,0.170874 1.196121,0.170874c0.854372,-0.341749 11.619463,8.714598 11.961212,9.398095c0.170874,0.512623 -0.341749,1.025247 0,1.196121c0,0 0.341749,0.341749 0.512623,0.341749c0.683498,-0.854372 7.689351,-10.252468 9.227221,-10.594217c-1.366996,-2.050494 -2.733991,-4.100987 -4.100987,-6.322355c-1.025247,0.683498 0,1.879619 0.170874,2.563117z"/>
   <path id="svg_14" fill="white" d="m480.761247,132.390408c-3.588364,-2.221368 -9.56897,2.221368 -10.423342,2.563117c-1.708745,0.854372 -3.07574,-0.854372 -2.221368,-2.563117c0.854372,-1.366996 2.392242,-2.050494 3.930113,-2.221368c0.512623,0 2.392242,0.341749 2.563117,0c0.170874,-0.341749 0.341749,-0.341749 0,-0.512623c-1.53787,-1.025247 -2.904866,-2.050494 -4.442736,-2.904866c-0.341749,1.879619 -2.392242,2.904866 -3.588364,4.100987c-1.366996,1.53787 -2.563117,3.246615 -2.563117,5.467983c0,1.879619 1.196121,3.588364 2.904866,4.61361c1.879619,1.025247 3.930113,0.170874 5.638857,-0.854372c1.025247,-0.683498 2.221368,-1.53787 3.246615,-2.050494c1.708745,-0.854372 3.930113,-0.170874 3.417489,2.221368c-0.512623,1.879619 -2.392242,3.588364 -4.100987,3.930113c-1.025247,0.341749 -2.221368,0.170874 -3.246615,-0.170874c-0.683498,-0.170874 -1.708745,-1.196121 -2.050494,-0.170874c2.050494,1.366996 3.930113,2.904866 5.980606,4.271862c0.170874,-1.366996 0.854372,-1.879619 1.879619,-2.733991c1.196121,-1.025247 2.392242,-2.221368 3.417489,-3.588364c2.050494,-2.904866 2.733991,-7.005853 -0.341749,-9.398095z"/>
   <path id="svg_15" fill="white" d="m480.761247,132.390408c1.708745,0.854372 -1.025247,-0.854372 0,0l0,0z"/>
   <path id="svg_16" fill="white" d="m543.472174,64.724121c-1.196121,1.196121 -14.353455,-3.930113 -15.378701,-4.784485c-0.512623,-0.170874 -0.512623,-2.221368 -1.196121,-1.366996c-0.683498,0.854372 -1.366996,1.708745 -2.050494,2.563117c-0.683498,0.854372 -1.366996,1.708745 -2.221368,2.563117c-0.512623,0.512623 -0.854372,0.854372 0,1.196121c1.366996,-0.683498 9.227221,12.473836 8.543723,14.524329c-1.196121,0.683498 -11.790338,-8.714598 -12.132087,-9.227221c-0.170874,-0.170874 0.512623,-1.708745 -0.341749,-1.53787c-0.341749,0 -1.196121,1.53787 -1.53787,1.879619c-0.512623,0.683498 -1.025247,1.196121 -1.53787,1.879619c0.512623,0.854372 0.854372,0 1.708745,0c0.683498,0.170874 3.07574,2.221368 3.759238,2.904866c-1.196121,0 -4.61361,0.170874 -4.955359,0.170874c-1.53787,0.170874 -0.683498,-1.196121 -1.708745,-1.53787c-1.366996,1.53787 -2.563117,3.07574 -3.930113,4.784485c-0.683498,0.854372 -1.53787,1.879619 -2.221368,2.733991c-0.170874,0.170874 0,0 0.170874,0.170874c0.512623,0.512623 0.170874,0.341749 1.025247,0c0.854372,-0.341749 11.277714,8.372849 11.619463,8.885472c0.683498,0.854372 -0.341749,1.708745 0.683498,2.050494c1.025247,-1.196121 2.050494,-2.563117 3.07574,-3.759238c0.170874,-0.170874 0.170874,-0.170874 0,-0.341749c-0.683498,-0.683498 -0.854372,0.341749 -1.708745,0.341749c-0.854372,-0.170874 -7.518476,-5.809732 -10.081593,-7.860225c3.07574,-0.170874 12.473836,-0.512623 14.011706,-0.512623c0.512623,0 1.879619,1.53787 1.879619,2.050494c-0.170874,0.683498 -0.854372,1.025247 0.170874,1.366996c0.854372,-1.025247 1.708745,-1.879619 2.563117,-2.904866l0.341749,-0.512623c0.170874,-0.170874 0.170874,-0.170874 0.341749,-0.512623l0.341749,-0.341749c0.683498,-0.854372 3.07574,-3.417489 2.733991,-3.759238c-0.854372,-0.683498 -1.196121,0.854372 -2.221368,-0.170874c-0.512623,-0.341749 -2.050494,-3.07574 -2.392242,-3.759238c-0.512623,-0.683498 1.025247,-1.53787 1.708745,-1.879619c1.366996,-0.854372 5.467983,-2.050494 5.980606,0.512623c0,0.512623 -0.512623,0.854372 -0.170874,1.196121c0,0 0.341749,0.341749 0.512623,0.341749c0.341749,-0.341749 4.100987,-4.784485 5.638857,-6.834978c-0.683498,-0.170874 -0.854372,-0.341749 -1.025247,-0.512623zm-12.64471,3.759238c0.170874,-0.170874 0.341749,-0.170874 0,0c-0.512623,0.341749 -1.196121,0.854372 -1.708745,1.366996c-0.854372,-1.53787 -1.708745,-3.07574 -2.733991,-4.61361c2.050494,0.854372 4.100987,1.708745 5.980606,2.563117c-0.341749,0 -0.854372,0.341749 -1.53787,0.683498z"/>
   <path id="svg_17" fill="white" d="m514.252641,87.621299c-4.100987,-3.417489 -9.56897,-2.392242 -12.986459,1.366996c-3.246615,3.930113 -2.904866,9.739844 1.025247,12.986459c3.930113,3.246615 9.739844,2.392242 12.986459,-1.366996c3.246615,-3.930113 3.07574,-9.739844 -1.025247,-12.986459zm-0.512623,11.277714c-2.221368,2.221368 -5.809732,0.170874 -7.689351,-1.196121c-1.879619,-1.366996 -5.297108,-4.442736 -3.246615,-7.005853c1.879619,-2.221368 5.297108,-0.341749 7.176727,0.854372c2.050494,1.366996 5.809732,4.442736 3.930113,7.176727c0.170874,-0.170874 0.170874,-0.170874 -0.170874,0.170874z"/>
   <path id="svg_18" fill="white" d="m514.252641,87.621299c2.050494,1.708745 -0.512623,-0.341749 0,0l0,0z"/>
   <path id="svg_19" fill="white" d="m513.740018,98.899014c0.170874,-0.170874 0.170874,-0.170874 0.170874,-0.170874c-0.170874,0.170874 -0.170874,0.170874 -0.170874,0.170874z"/>
   <path id="svg_20" fill="white" d="m502.974927,103.170875c0.170874,0.170874 0.512623,0.341749 0,0c-4.955359,-3.759238 -10.765091,-2.733991 -14.524329,1.879619c-1.708745,2.050494 -3.417489,4.100987 -5.126234,6.151481c0.683498,0.854372 1.366996,-0.170874 2.221368,0.341749c0.683498,0.512623 10.594217,8.714598 10.765091,9.227221c0.341749,0.854372 -0.512623,0.854372 0.170874,1.53787c0.341749,0.170874 7.689351,-8.885472 8.372849,-10.594217c1.53787,-3.07574 0.512623,-6.49323 -1.879619,-8.543723zm-2.221368,11.619463c-0.341749,0.512623 0,0.170874 -1.196121,1.196121c-0.512623,0.512623 -10.935965,-8.0311 -10.594217,-8.372849c1.366996,-1.53787 4.442736,-2.733991 6.151481,-2.221368c3.759238,0.683498 8.885472,5.297108 5.638857,9.398095z"/>
   <path id="svg_21" fill="#491213" d="m459.572813,129.485542l0.512623,-0.683498l47.161351,-55.192451c-11.790338,1.53787 -20.334061,10.423342 -31.78265,8.543723c-5.809732,-1.025247 -5.980606,-4.271862 -7.689351,-7.689351c-1.196121,-2.563117 -3.246615,-2.221368 -5.980606,-3.246615c-2.392242,-1.025247 -3.930113,-2.904866 -8.885472,-1.879619c-4.271862,1.025247 -4.784485,7.689351 -10.252468,7.347602c-2.904866,-0.170874 -3.07574,-4.271862 -7.176727,-9.398095c-10.765091,-12.986459 -20.846684,-11.10684 -27.681663,0.854372l51.774962,61.343931z"/>
   <path id="svg_22" fill="#23A9E1" d="m452.566961,152.38272l7.005853,-11.10684l6.834978,11.10684l-6.834978,11.10684l-7.005853,-11.10684z"/>
   <path id="svg_23" fill="white" d="m412.924086,86.425178c0.854372,1.025247 1.53787,2.221368 1.366996,3.588364c-0.170874,1.025247 -1.53787,2.733991 -0.512623,3.07574c1.196121,-1.53787 2.563117,-3.246615 3.759238,-4.784485c-1.025247,-0.341749 -9.227221,-9.910719 -9.227221,-11.10684c-1.879619,1.025247 -3.588364,2.050494 -5.467983,2.904866c0.341749,1.196121 2.221368,0 3.246615,0c1.366996,0.170874 2.392242,1.025247 3.417489,2.050494c-2.904866,2.392242 -10.081593,8.543723 -10.935965,8.714598c-0.341749,0 -1.879619,-1.025247 -1.879619,-0.170874c0,0.512623 1.53787,1.708745 1.708745,2.050494c1.196121,1.53787 2.563117,3.07574 3.759238,4.61361c1.025247,-0.512623 -0.170874,-1.196121 0.341749,-2.050494c0.512623,-0.683498 8.372849,-7.347602 10.423342,-8.885472z"/>
   <path id="svg_24" fill="white" d="m403.867739,74.463966c0.683498,-0.170874 1.025247,0.683498 1.708745,-0.170874c-1.366996,-1.708745 -2.733991,-3.246615 -4.100987,-4.955359c-0.683498,-0.683498 -1.366996,-1.53787 -1.196121,0c0.170874,1.025247 -10.423342,9.739844 -11.10684,9.910719c-0.854372,0.341749 -1.366996,-0.683498 -1.879619,0.170874c1.196121,1.53787 2.563117,2.904866 3.759238,4.442736c0.341749,0.512623 0.854372,1.025247 1.196121,1.53787c0.512623,0.512623 0.341749,-1.196121 0.341749,-1.025247c-0.170874,-0.854372 0.854372,-1.53787 1.53787,-2.050494c2.563117,-2.221368 9.056346,-7.860225 9.739844,-7.860225z"/>
   <path id="svg_25" fill="white" d="m388.830787,72.926095c-3.07574,0.854372 -6.322355,-0.341749 -7.176727,-3.417489c-0.854372,-3.07574 1.025247,-6.49323 3.588364,-8.201974c2.392242,-1.708745 6.151481,-1.708745 7.518476,1.366996c0.512623,1.366996 0.341749,2.904866 -0.170874,4.271862c-0.341749,0.854372 -1.025247,1.708745 0.170874,2.221368c1.53787,-1.879619 2.904866,-3.759238 4.442736,-5.638857c-1.879619,-1.025247 -2.563117,-2.904866 -3.930113,-4.442736c-1.53787,-1.879619 -3.588364,-3.588364 -5.980606,-3.930113c-4.955359,-0.683498 -9.56897,4.442736 -9.910719,8.885472c-0.170874,2.563117 0.683498,4.784485 2.050494,6.834978c1.366996,1.708745 3.246615,2.733991 4.100987,4.784485c0.512623,0.170874 4.61361,-1.708745 5.638857,-2.221368c-0.170874,-0.170874 -0.170874,-0.341749 -0.341749,-0.512623c-1.196121,0.341749 0,0 0,0z"/>
   <path id="svg_26" fill="white" d="m455.98445,135.124399c-2.050494,-1.366996 -6.834978,-8.0311 -7.860225,-9.056346c-0.170874,-0.170874 -0.341749,-0.512623 -0.512623,-0.683498c0,0 -0.512623,0.341749 -0.341749,0.341749c-0.341749,0.170874 0.170874,1.025247 -0.170874,1.53787c-1.366996,2.050494 -9.910719,8.543723 -10.252468,8.885472c-1.025247,0.683498 -2.050494,-0.341749 -2.563117,0.512623c1.196121,1.53787 4.784485,5.980606 5.126234,6.151481c0.854372,0.170874 0.170874,-1.366996 0.341749,-1.708745c0.170874,-0.683498 4.442736,-4.100987 5.980606,-5.467983c0.512623,-0.512623 1.196121,0.683498 1.53787,1.196121c0.512623,0.854372 0.854372,1.708745 0.512623,2.733991c-0.170874,0.683498 -1.196121,1.53787 -0.512623,2.050494c1.025247,-1.196121 4.100987,-4.784485 4.442736,-5.126234c0.512623,-0.512623 -1.025247,0 -0.854372,-0.170874c-0.683498,0.341749 -1.196121,0.341749 -1.879619,0c-0.170874,-0.170874 -1.879619,-1.879619 -1.708745,-2.050494c0.683498,-0.683498 1.708745,-1.708745 2.563117,-1.879619c1.53787,-0.341749 2.733991,2.563117 2.904866,3.588364c0.170874,1.025247 0.170874,2.050494 -0.170874,3.07574c-0.170874,0.683498 -0.854372,1.196121 0,1.53787c1.196121,-1.708745 2.392242,-3.246615 3.588364,-4.955359c0.341749,-0.341749 0,-0.512623 -0.170874,-0.512623c-0.170874,-0.170874 0.341749,0 0,0z"/>
   <path id="svg_27" fill="white" d="m438.555255,127.947672c3.759238,-3.246615 4.271862,-8.714598 1.366996,-12.473836c-3.246615,-4.271862 -9.227221,-5.297108 -13.328208,-1.879619c-3.759238,3.246615 -4.271862,8.543723 -1.366996,12.473836c3.417489,4.61361 8.885472,5.126234 13.328208,1.879619c2.050494,-1.53787 -0.170874,0.170874 0,0zm-0.854372,-8.0311c-1.025247,2.563117 -3.759238,5.297108 -6.322355,6.322355c-3.07574,1.196121 -5.297108,-1.366996 -4.100987,-4.442736c1.196121,-2.563117 3.759238,-5.297108 6.322355,-6.322355c3.246615,-1.196121 5.297108,1.53787 4.100987,4.442736c-0.683498,1.53787 0.170874,-0.341749 0,0z"/>
   <path id="svg_28" fill="white" d="m427.619289,103.000001c0.854372,0.170874 1.53787,0.854372 2.221368,0c-1.196121,-1.53787 -2.563117,-3.07574 -3.759238,-4.442736c-1.025247,0.512623 0,0.854372 -0.341749,1.708745c-0.341749,0.683498 -4.442736,1.366996 -5.467983,1.53787c0.341749,-1.025247 1.53787,-4.442736 2.050494,-4.784485c0.854372,-0.683498 1.53787,0.683498 2.221368,-0.170874c-1.53787,-1.879619 -3.07574,-3.759238 -4.61361,-5.638857c-0.512623,-0.683498 -1.025247,-1.708745 -1.708745,-1.196121c0,0 0,2.563117 -0.170874,2.904866c-0.170874,0.341749 -1.53787,6.151481 -3.246615,7.689351c-0.854372,0.683498 -3.759238,3.246615 -4.61361,3.588364c-0.854372,0.341749 -1.366996,-1.025247 -2.050494,0c1.366996,1.708745 2.904866,3.417489 4.271862,5.126234c0.170874,0.170874 1.025247,1.53787 1.366996,1.53787c0.854372,0.170874 0.170874,-1.53787 0.170874,-1.879619c0.341749,-0.683498 4.271862,-4.61361 5.980606,-4.955359c2.050494,-0.341749 5.126234,-1.196121 7.689351,-1.025247c0.512623,0.170874 -0.683498,0 0,0z"/>
   <path id="svg_29" fill="#DC6243" d="m416.854198,70.362979c-6.834978,-0.341749 -4.100987,-6.834978 0.683498,-8.201974c4.442736,-1.366996 13.840831,2.904866 16.745697,5.809732c-4.784485,1.53787 -10.935965,1.196121 -16.062199,1.53787c-0.341749,-5.467983 -1.708745,-3.588364 -1.366996,0.854372z"/>
   <path id="svg_30" fill="#DC6243" d="m418.562943,78.564953c-3.417489,-2.733991 -2.392242,-9.056346 3.07574,-7.005853c6.834978,3.588364 -1.53787,5.467983 -3.07574,7.005853z"/>
   <path id="svg_31" fill="#DC6243" d="m433.087272,91.722286c-14.695204,-0.170874 -4.784485,-22.726303 0.170874,-21.359308c5.809732,1.879619 5.126234,21.530182 -0.170874,21.359308z"/>
   <path id="svg_32" fill="#DC6243" d="m443.510614,84.374684c-1.366996,4.271862 -4.100987,5.126234 -3.759238,-0.170874c0.341749,-5.980606 4.271862,-4.61361 8.372849,-6.834978c3.417489,-1.879619 5.297108,-8.885472 11.277714,-4.784485c2.733991,1.879619 5.809732,0.341749 6.664104,3.07574c0,-0.170874 -7.689351,17.600069 -3.417489,17.600069c-8.543723,0 -4.784485,-10.081593 -1.53787,-16.916572c-3.07574,1.53787 -8.201974,11.448589 -4.100987,12.986459c-2.221368,2.904866 -8.885472,6.664104 -12.302961,3.930113c-2.563117,-1.879619 -1.196121,-5.467983 -1.196121,-8.885472z"/>
   <path id="svg_33" fill="#DC6243" d="m450.516467,100.778633c-5.980606,1.708745 -13.840831,-2.050494 -4.271862,-3.930113c5.980606,-1.196121 12.302961,1.196121 4.271862,3.930113c0.170874,0 -0.170874,0 0,0z"/>
   <path id="svg_34" fill="#DC6243" d="m458.034943,100.607758c-1.196121,-2.904866 1.025247,-6.151481 4.61361,-3.759238c3.07574,2.050494 -1.53787,5.297108 -4.61361,3.759238z"/>
   <path id="svg_35" fill="#DC6243" d="m452.908709,108.467983c-4.100987,-1.196121 -17.941818,-1.025247 -8.885472,-4.784485c2.904866,-1.025247 17.429195,0.341749 8.885472,4.784485z"/>
   <path id="svg_36" fill="#DC6243" d="m458.376692,107.95536c0,-1.708745 -0.854372,-4.61361 2.392242,-3.246615c3.759238,1.366996 -2.392242,4.442736 -2.392242,3.246615c0,0 0,-0.341749 0,0z"/>
   <path id="svg_37" fill="#DC6243" d="m470.850528,114.106841c-2.392242,-2.050494 -4.955359,-2.221368 -7.176727,0c-3.07574,-5.638857 -14.18258,-3.759238 -19.479689,-4.61361c2.733991,7.005853 25.28942,8.372849 26.656416,4.61361z"/>
   <path id="svg_38" fill="#DC6243" d="m467.603913,118.378702c-5.467983,-0.170874 -11.448589,-1.025247 -16.403948,0.170874c3.246615,0.854372 10.935965,3.07574 3.759238,4.955359c2.563117,3.759238 6.834978,3.417489 9.56897,0.170874c-1.196121,-0.512623 -1.708745,-1.196121 -2.733991,-1.879619c2.733991,-0.512623 5.467983,-2.050494 5.809732,-3.417489z"/>
   <path id="svg_39" fill="#DC6243" d="m473.755394,111.714598c-9.056346,-5.297108 -6.834978,-9.227221 0.683498,-12.986459c3.930113,-1.879619 12.473836,-8.885472 16.062199,-6.664104c-5.638857,6.664104 -11.277714,13.157333 -16.745697,19.650563z"/>
   <path id="svg_40" fill="#F49774" d="m467.262164,99.240762c-7.689351,-7.860225 11.448589,-7.176727 14.524329,-9.910719c2.221368,0.683498 18.454442,-14.18258 22.384554,-13.157333c-2.904866,3.246615 -8.885472,13.840831 -13.328208,13.840831c-3.417489,0 -6.834978,-0.512623 -9.398095,1.879619c-3.759238,3.588364 -10.081593,5.297108 -14.18258,7.347602z"/>
   <path id="svg_41" fill="#F4B1A4" d="m469.825281,89.671793c-4.271862,2.221368 -8.201974,-6.664104 -0.854372,-5.809732c4.784485,0.512623 9.739844,-0.341749 14.18258,0.341749c-3.417489,3.930113 -8.0311,6.151481 -13.328208,5.467983z"/>
   <path id="svg_42" fill="white" d="m491.355463,120.941819c0.341749,1.025247 0.512623,2.221368 0.341749,3.417489c-0.170874,1.53787 -1.708745,4.955359 -3.759238,3.930113c-2.050494,-1.025247 -3.759238,-2.904866 -5.467983,-4.442736c1.366996,-1.53787 2.563117,-2.904866 4.955359,-2.221368c0.683498,0.170874 1.196121,0 0.512623,-0.512623c-0.683498,-0.341749 -5.297108,-3.417489 -5.638857,-3.07574c-0.512623,0.512623 0.854372,1.53787 0.341749,2.563117c-0.341749,0.683498 -1.025247,1.366996 -1.53787,2.050494c-1.196121,-1.025247 -3.246615,-2.221368 -1.879619,-3.930113c0.854372,-1.196121 2.221368,-2.050494 3.588364,-2.221368c1.025247,-0.170874 3.07574,0.683498 3.417489,-0.341749c-1.879619,-0.854372 -3.759238,-1.708745 -5.638857,-2.733991c0.341749,1.366996 -5.638857,7.689351 -7.005853,9.398095c-0.170874,0.170874 -1.196121,1.025247 -1.196121,1.366996c0,0.683498 1.025247,0.170874 1.196121,0.170874c0.854372,-0.341749 11.619463,8.714598 11.961212,9.398095c0.170874,0.512623 -0.341749,1.025247 0,1.196121c0,0 0.341749,0.341749 0.512623,0.341749c0.683498,-0.854372 7.689351,-10.252468 9.227221,-10.594217c-1.366996,-2.050494 -2.733991,-4.100987 -4.100987,-6.322355c-1.025247,0.512623 0,1.708745 0.170874,2.563117z"/>
   <path id="svg_43" fill="white" d="m480.761247,132.390408c-3.588364,-2.221368 -9.56897,2.221368 -10.423342,2.563117c-1.708745,0.854372 -3.07574,-0.854372 -2.221368,-2.563117c0.854372,-1.366996 2.392242,-2.050494 3.930113,-2.221368c0.512623,0 2.221368,0.341749 2.563117,0c0.170874,-0.341749 0.341749,-0.341749 0,-0.512623c-1.53787,-1.025247 -2.904866,-2.050494 -4.442736,-2.904866c-0.341749,1.879619 -2.392242,2.904866 -3.588364,4.100987c-1.366996,1.53787 -2.563117,3.246615 -2.563117,5.467983c0,1.879619 1.196121,3.588364 2.904866,4.61361c1.879619,1.025247 3.930113,0.170874 5.638857,-0.854372c1.025247,-0.683498 2.221368,-1.53787 3.246615,-2.050494c1.708745,-0.854372 3.930113,-0.170874 3.417489,2.221368c-0.512623,1.879619 -2.392242,3.588364 -4.100987,3.930113c-1.025247,0.341749 -2.221368,0.170874 -3.246615,-0.170874c-0.683498,-0.170874 -1.708745,-1.196121 -2.050494,-0.170874c2.050494,1.366996 3.930113,2.904866 5.980606,4.271862c0.170874,-1.366996 0.854372,-1.879619 1.879619,-2.733991c1.196121,-1.025247 2.392242,-2.221368 3.417489,-3.588364c2.050494,-2.904866 2.733991,-7.005853 -0.341749,-9.398095z"/>
   <path id="svg_44" fill="white" d="m480.761247,132.390408c1.708745,1.025247 -1.025247,-0.854372 0,0l0,0z"/>
   <path id="svg_45" fill="white" d="m543.472174,64.724121c-1.196121,1.196121 -14.353455,-3.930113 -15.378701,-4.784485c-0.512623,-0.170874 -0.512623,-2.221368 -1.196121,-1.366996c-0.683498,0.854372 -1.366996,1.708745 -2.050494,2.563117c-0.683498,0.854372 -1.366996,1.708745 -2.221368,2.563117c-0.512623,0.512623 -0.854372,0.854372 0,1.196121c1.366996,-0.683498 9.227221,12.473836 8.543723,14.524329c-1.196121,0.683498 -11.790338,-8.714598 -12.132087,-9.227221c-0.170874,-0.170874 0.512623,-1.708745 -0.341749,-1.53787c-0.341749,0 -1.196121,1.53787 -1.53787,1.879619c-0.512623,0.683498 -1.025247,1.196121 -1.53787,1.879619c0.512623,0.854372 0.854372,0 1.708745,0c0.683498,0.170874 3.07574,2.221368 3.759238,2.904866c-1.196121,0 -4.61361,0.170874 -4.955359,0.170874c-1.53787,0.170874 -0.683498,-1.196121 -1.708745,-1.53787c-1.366996,1.53787 -2.563117,3.07574 -3.930113,4.784485c-0.683498,0.854372 -1.53787,1.879619 -2.221368,2.733991c-0.170874,0.170874 0,0 0,0.170874c0.512623,0.512623 0.170874,0.341749 1.025247,0c0.854372,-0.341749 11.277714,8.372849 11.619463,8.885472c0.683498,0.683498 -0.341749,1.708745 0.683498,2.050494c1.025247,-1.196121 2.050494,-2.563117 3.07574,-3.759238c0.170874,-0.170874 0.170874,-0.170874 0,-0.341749c-0.683498,-0.683498 -0.854372,0.341749 -1.708745,0.341749c-0.854372,-0.170874 -7.518476,-5.809732 -10.081593,-7.860225c3.07574,-0.170874 12.473836,-0.512623 14.011706,-0.512623c0.512623,0 1.879619,1.53787 1.879619,2.050494c-0.170874,0.683498 -0.854372,1.025247 0.170874,1.366996c0.854372,-1.025247 1.708745,-1.879619 2.563117,-2.904866l0.341749,-0.512623c0.170874,-0.170874 0.170874,-0.170874 0.341749,-0.512623l0.341749,-0.341749c0.683498,-0.854372 3.07574,-3.417489 2.733991,-3.588364c-0.854372,-0.683498 -1.196121,0.854372 -2.221368,-0.170874c-0.512623,-0.341749 -2.050494,-3.07574 -2.392242,-3.759238c-0.512623,-0.683498 1.025247,-1.53787 1.708745,-1.879619c1.366996,-0.854372 5.467983,-2.050494 5.980606,0.512623c0,0.512623 -0.512623,0.854372 -0.170874,1.196121c0,0 0.341749,0.341749 0.512623,0.341749c0.341749,-0.341749 4.100987,-4.784485 5.638857,-6.834978c-0.512623,-0.341749 -0.683498,-0.512623 -0.854372,-0.683498zm-12.64471,3.759238c0.170874,0 0.341749,-0.170874 0,0c-0.512623,0.341749 -1.196121,0.854372 -1.708745,1.366996c-0.854372,-1.53787 -1.708745,-3.07574 -2.733991,-4.61361c2.050494,0.854372 4.100987,1.708745 5.980606,2.563117c-0.341749,0.170874 -0.854372,0.341749 -1.53787,0.683498z"/>
   <path id="svg_46" fill="white" d="m514.252641,87.621299c-4.100987,-3.417489 -9.56897,-2.392242 -12.986459,1.366996c-3.246615,3.930113 -2.904866,9.739844 1.025247,12.986459c3.930113,3.246615 9.739844,2.392242 12.986459,-1.366996c3.246615,-3.930113 3.07574,-9.739844 -1.025247,-12.986459zm-0.512623,11.277714c0,0 0,0.170874 0,0c-2.221368,2.221368 -5.809732,0.170874 -7.689351,-1.196121c-1.879619,-1.366996 -5.297108,-4.442736 -3.246615,-7.005853c1.879619,-2.221368 5.297108,-0.341749 7.176727,0.854372c2.050494,1.366996 5.809732,4.442736 3.930113,7.176727c0.170874,-0.170874 0.170874,-0.170874 -0.170874,0.170874z"/>
   <path id="svg_47" fill="white" d="m514.252641,87.621299c2.050494,1.708745 -0.512623,-0.341749 0,0l0,0z"/>
   <path id="svg_48" fill="white" d="m513.740018,99.069888c0,-0.170874 0,-0.170874 0,0c0.170874,-0.170874 0.170874,-0.170874 0.170874,-0.170874c-0.170874,0 -0.170874,0.170874 -0.170874,0.170874z"/>
   <path id="svg_49" fill="white" d="m502.974927,103.170875c0.170874,0.170874 0.512623,0.512623 0,0c-4.955359,-3.759238 -10.765091,-2.733991 -14.524329,1.879619c-1.708745,2.050494 -3.417489,4.100987 -5.126234,6.151481c0.683498,0.854372 1.366996,-0.170874 2.221368,0.341749c0.683498,0.512623 10.594217,8.714598 10.765091,9.227221c0.341749,0.854372 -0.512623,0.854372 0.170874,1.53787c0.341749,0.170874 7.689351,-8.885472 8.372849,-10.594217c1.53787,-3.07574 0.512623,-6.322355 -1.879619,-8.543723zm-2.221368,11.619463c-0.341749,0.512623 0,0.170874 -1.196121,1.196121c-0.512623,0.512623 -10.935965,-8.0311 -10.594217,-8.372849c1.366996,-1.53787 4.442736,-2.733991 6.151481,-2.221368c3.759238,0.854372 8.885472,5.467983 5.638857,9.398095z"/>
  </g>
 </g>
</svg>